<svg width="1170" height="154" viewBox="0 0 1170 154" fill="none" xmlns="http://www.w3.org/2000/svg">
<path d="M73.9822 148.484L41.1569 91.3402H23.3035V148.484H0V5.62402H49.1753C60.1379 5.62402 69.3466 7.57069 76.9264 11.4012C84.5063 15.2318 90.2069 20.381 93.9655 26.7862C97.7242 33.2541 99.6035 40.4128 99.6035 48.3879C99.6035 57.6817 96.9098 66.1591 91.5224 73.7574C86.1351 81.3556 77.8035 86.5049 66.5902 89.2679L101.859 148.484H73.9822ZM23.3661 72.627H49.1753C57.9454 72.627 64.523 70.4292 68.9707 66.0335C73.4184 61.6378 75.6109 55.735 75.6109 48.3879C75.6109 41.0408 73.4184 35.2008 69.0333 30.9935C64.6483 26.7862 58.0081 24.7139 49.1753 24.7139H23.3661V72.627Z" fill="#1477FB"/>
<path d="M146.586 144.906C138.944 141.577 132.93 136.805 128.545 130.651C124.16 124.497 121.967 117.276 121.967 109.049H146.962C147.526 115.203 149.906 120.29 154.229 124.246C158.551 128.202 164.565 130.211 172.395 130.211C180.226 130.211 186.741 128.265 191.251 124.371C195.762 120.478 198.017 115.454 198.017 109.238C198.017 104.465 196.639 100.509 193.82 97.4949C191.001 94.4807 187.555 92.1573 183.358 90.5246C179.161 88.8919 173.398 87.0708 166.006 85.1869C156.735 82.7379 149.155 80.2261 143.329 77.7143C137.503 75.2024 132.554 71.2463 128.482 65.9087C124.41 60.571 122.343 53.4123 122.343 44.5581C122.343 36.3319 124.41 29.1732 128.482 22.9564C132.554 16.8024 138.317 12.0927 145.709 8.76457C153.101 5.4992 161.621 3.80371 171.331 3.80371C185.112 3.80371 196.451 7.25747 205.283 14.165C214.116 21.0725 219.002 30.5547 219.942 42.6115H194.133C193.694 37.3994 191.251 32.9409 186.741 29.236C182.231 25.531 176.279 23.7099 168.887 23.7099C162.185 23.7099 156.735 25.4054 152.475 28.8592C148.215 32.313 146.148 37.211 146.148 43.679C146.148 48.0747 147.463 51.654 150.157 54.4798C152.851 57.3056 156.233 59.5035 160.305 61.1362C164.377 62.7689 170.015 64.5899 177.094 66.4738C186.553 69.0484 194.195 71.6859 200.147 74.2605C206.098 76.8351 211.172 80.854 215.306 86.2545C219.504 91.6549 221.571 98.8764 221.571 107.919C221.571 115.203 219.629 122.048 215.745 128.453C211.861 134.921 206.16 140.07 198.706 143.964C191.251 147.857 182.481 149.804 172.333 149.804C162.748 149.804 154.166 148.108 146.524 144.78L146.586 144.906Z" fill="#1477FB"/>
<path d="M266.299 144.906C258.656 141.577 252.642 136.805 248.257 130.651C243.872 124.497 241.68 117.276 241.68 109.049H266.675C267.238 115.203 269.619 120.29 273.941 124.246C278.264 128.202 284.277 130.211 292.108 130.211C299.938 130.211 306.453 128.265 310.964 124.371C315.474 120.478 317.729 115.454 317.729 109.238C317.729 104.465 316.351 100.509 313.532 97.4949C310.713 94.4807 307.268 92.1573 303.07 90.5246C298.873 88.8919 293.11 87.0708 285.718 85.1869C276.447 82.7379 268.867 80.2261 263.041 77.7143C257.215 75.2024 252.266 71.2463 248.195 65.9087C244.123 60.571 242.056 53.4123 242.056 44.5581C242.056 36.3319 244.123 29.1732 248.195 22.9564C252.266 16.8024 258.03 12.0927 265.422 8.76457C272.814 5.4992 281.333 3.80371 291.043 3.80371C304.825 3.80371 316.163 7.25747 324.996 14.165C333.829 21.0725 338.715 30.5547 339.654 42.6115H313.845C313.407 37.3994 310.964 32.9409 306.453 29.236C301.943 25.531 295.992 23.7099 288.6 23.7099C281.897 23.7099 276.447 25.4054 272.187 28.8592C267.927 32.313 265.86 37.211 265.86 43.679C265.86 48.0747 267.176 51.654 269.869 54.4798C272.563 57.3056 275.946 59.5035 280.018 61.1362C284.089 62.7689 289.727 64.5899 296.806 66.4738C306.265 69.0484 313.908 71.6859 319.859 74.2605C325.81 76.8351 330.884 80.854 335.019 86.2545C339.216 91.6549 341.283 98.8764 341.283 107.919C341.283 115.203 339.341 122.048 335.457 128.453C331.573 134.921 325.873 140.07 318.418 143.964C310.964 147.857 302.193 149.804 292.045 149.804C282.461 149.804 273.879 148.108 266.236 144.78L266.299 144.906Z" fill="#1477FB"/>
<path d="M375.737 13.9138C384.507 7.19468 395.72 3.80371 409.439 3.80371C418.836 3.80371 426.917 5.4364 433.745 8.63898C440.573 11.9044 445.71 16.3001 449.218 21.8261C452.726 27.4149 454.418 33.6317 454.418 40.6648C454.418 48.7026 452.225 55.5474 447.777 61.199C443.33 66.9134 438.068 70.6811 431.866 72.6278V73.3814C439.759 75.7048 445.961 79.9749 450.346 86.0661C454.793 92.2201 456.986 100.07 456.986 109.614C456.986 117.276 455.169 124.057 451.536 129.96C447.903 135.926 442.578 140.573 435.437 144.027C428.358 147.48 419.838 149.176 409.878 149.176C395.407 149.176 383.505 145.596 374.171 138.438C364.837 131.279 359.888 120.918 359.199 107.479H381.312C381.876 114.324 384.57 119.913 389.581 124.246C394.53 128.579 401.233 130.714 409.69 130.714C418.147 130.714 424.161 128.579 428.608 124.246C433.056 119.913 435.249 114.324 435.249 107.479C435.249 98.4368 432.242 91.9689 426.291 88.2011C420.339 84.3706 411.193 82.4867 398.853 82.4867H393.653V64.276H399.103C409.941 64.1504 418.21 62.3921 423.91 59.0639C429.611 55.673 432.43 50.3981 432.43 43.1766C432.43 36.9598 430.362 31.999 426.228 28.3568C422.093 24.6519 416.205 22.8308 408.562 22.8308C400.92 22.8308 395.219 24.6519 391.085 28.3568C386.95 32.0618 384.445 36.5831 383.63 42.0463H361.329C362.143 29.9895 366.904 20.633 375.675 13.9138H375.737Z" fill="#1477FB"/>
<rect x="488.476" width="680.882" height="153.608" rx="14.3137" fill="#1477FB"/>
<path d="M556.698 54.0757V70.9117H580.986V79.5597H556.698V99.1557H585.678V107.804H547.222V45.4277H584.574V54.0757H556.698ZM640.393 67.0477L651.801 45.4277H662.933L646.189 75.6957L662.933 107.804H651.801L640.393 84.1597L628.893 107.804H617.853L635.333 75.6957L617.853 45.4277H628.893L640.393 67.0477ZM697.04 107.804V45.4277H718.108C730.528 45.4277 739.268 51.0397 739.268 64.0117C739.268 76.9837 729.056 82.0437 717.464 82.0437H706.516V107.804H697.04ZM706.516 73.3957H717.648C724.18 73.3957 729.792 71.3717 729.792 63.8277C729.792 55.6397 724.824 54.0757 717.74 54.0757H706.516V73.3957ZM782.759 99.1557H814.683V107.804H773.283V45.4277H782.759V99.1557ZM866.637 44.5997C882.461 44.5997 888.717 63.9197 888.717 76.5237C888.717 90.2317 882.553 108.632 866.637 108.632C850.721 108.632 844.557 90.2317 844.557 76.5237C844.557 63.9197 850.813 44.5997 866.637 44.5997ZM866.637 53.2477C855.597 53.2477 854.033 68.9797 854.033 76.9837C854.033 84.8037 855.781 99.9837 866.637 99.9837C877.401 99.9837 879.241 84.8037 879.241 76.9837C879.241 68.9797 877.585 53.2477 866.637 53.2477ZM932.852 81.9517V107.804H923.376V45.4277H941.5C952.908 45.4277 961.648 51.3157 961.648 63.6437C961.648 71.4637 957.324 78.5477 949.228 80.0197L965.512 107.804H954.656L940.396 81.9517H932.852ZM932.852 73.3037H939.844C947.48 73.3037 952.172 71.4637 952.172 63.2757C952.172 55.0877 946.468 54.0757 939.752 54.0757H932.852V73.3037ZM1009.19 54.0757V70.9117H1033.48V79.5597H1009.19V99.1557H1038.17V107.804H999.711V45.4277H1037.06V54.0757H1009.19ZM1083.68 81.9517V107.804H1074.21V45.4277H1092.33C1103.74 45.4277 1112.48 51.3157 1112.48 63.6437C1112.48 71.4637 1108.15 78.5477 1100.06 80.0197L1116.34 107.804H1105.49L1091.23 81.9517H1083.68ZM1083.68 73.3037H1090.67C1098.31 73.3037 1103 71.4637 1103 63.2757C1103 55.0877 1097.3 54.0757 1090.58 54.0757H1083.68V73.3037Z" fill="white"/>
<path d="M556.698 54.0757V53.7157H556.338V54.0757H556.698ZM556.698 70.9117H556.338V71.2717H556.698V70.9117ZM580.986 70.9117H581.346V70.5517H580.986V70.9117ZM580.986 79.5597V79.9197H581.346V79.5597H580.986ZM556.698 79.5597V79.1997H556.338V79.5597H556.698ZM556.698 99.1557H556.338V99.5157H556.698V99.1557ZM585.678 99.1557H586.038V98.7957H585.678V99.1557ZM585.678 107.804V108.164H586.038V107.804H585.678ZM547.222 107.804H546.862V108.164H547.222V107.804ZM547.222 45.4277V45.0677H546.862V45.4277H547.222ZM584.574 45.4277H584.934V45.0677H584.574V45.4277ZM584.574 54.0757V54.4357H584.934V54.0757H584.574ZM556.338 54.0757V70.9117H557.058V54.0757H556.338ZM556.698 71.2717H580.986V70.5517H556.698V71.2717ZM580.626 70.9117V79.5597H581.346V70.9117H580.626ZM580.986 79.1997H556.698V79.9197H580.986V79.1997ZM556.338 79.5597V99.1557H557.058V79.5597H556.338ZM556.698 99.5157H585.678V98.7957H556.698V99.5157ZM585.318 99.1557V107.804H586.038V99.1557H585.318ZM585.678 107.444H547.222V108.164H585.678V107.444ZM547.582 107.804V45.4277H546.862V107.804H547.582ZM547.222 45.7877H584.574V45.0677H547.222V45.7877ZM584.214 45.4277V54.0757H584.934V45.4277H584.214ZM584.574 53.7157H556.698V54.4357H584.574V53.7157ZM640.393 67.0477L640.075 67.2168L640.394 67.8167L640.711 67.2157L640.393 67.0477ZM651.801 45.4277V45.0677H651.584L651.483 45.2597L651.801 45.4277ZM662.933 45.4277L663.248 45.602L663.544 45.0677H662.933V45.4277ZM646.189 75.6957L645.874 75.5214L645.78 75.6907L645.87 75.8622L646.189 75.6957ZM662.933 107.804V108.164H663.527L663.252 107.637L662.933 107.804ZM651.801 107.804L651.477 107.96L651.575 108.164H651.801V107.804ZM640.393 84.1597L640.717 84.0033L640.394 83.334L640.069 84.0023L640.393 84.1597ZM628.893 107.804V108.164H629.118L629.217 107.961L628.893 107.804ZM617.853 107.804L617.537 107.632L617.247 108.164H617.853V107.804ZM635.333 75.6957L635.649 75.8678L635.746 75.6905L635.645 75.5157L635.333 75.6957ZM617.853 45.4277V45.0677H617.229L617.541 45.6077L617.853 45.4277ZM628.893 45.4277L629.211 45.2586L629.109 45.0677H628.893V45.4277ZM640.711 67.2157L652.119 45.5957L651.483 45.2597L640.075 66.8797L640.711 67.2157ZM651.801 45.7877H662.933V45.0677H651.801V45.7877ZM662.618 45.2534L645.874 75.5214L646.504 75.87L663.248 45.602L662.618 45.2534ZM645.87 75.8622L662.614 107.97L663.252 107.637L646.508 75.5292L645.87 75.8622ZM662.933 107.444H651.801V108.164H662.933V107.444ZM652.125 107.647L640.717 84.0033L640.069 84.3162L651.477 107.96L652.125 107.647ZM640.069 84.0023L628.569 107.646L629.217 107.961L640.717 84.3172L640.069 84.0023ZM628.893 107.444H617.853V108.164H628.893V107.444ZM618.169 107.976L635.649 75.8678L635.017 75.5236L617.537 107.632L618.169 107.976ZM635.645 75.5157L618.165 45.2477L617.541 45.6077L635.021 75.8757L635.645 75.5157ZM617.853 45.7877H628.893V45.0677H617.853V45.7877ZM628.575 45.5968L640.075 67.2168L640.711 66.8786L629.211 45.2586L628.575 45.5968ZM697.04 107.804H696.68V108.164H697.04V107.804ZM697.04 45.4277V45.0677H696.68V45.4277H697.04ZM706.516 82.0437V81.6837H706.156V82.0437H706.516ZM706.516 107.804V108.164H706.876V107.804H706.516ZM706.516 73.3957H706.156V73.7557H706.516V73.3957ZM706.516 54.0757V53.7157H706.156V54.0757H706.516ZM697.4 107.804V45.4277H696.68V107.804H697.4ZM697.04 45.7877H718.108V45.0677H697.04V45.7877ZM718.108 45.7877C724.271 45.7877 729.468 47.1809 733.119 50.1351C736.757 53.079 738.908 57.6133 738.908 64.0117H739.628C739.628 57.4381 737.409 52.6805 733.572 49.5754C729.747 46.4805 724.365 45.0677 718.108 45.0677V45.7877ZM738.908 64.0117C738.908 70.3892 736.405 74.7855 732.502 77.6002C728.583 80.4273 723.215 81.6837 717.464 81.6837V82.4037C723.304 82.4037 728.839 81.1301 732.923 78.1842C737.025 75.2259 739.628 70.6062 739.628 64.0117H738.908ZM717.464 81.6837H706.516V82.4037H717.464V81.6837ZM706.156 82.0437V107.804H706.876V82.0437H706.156ZM706.516 107.444H697.04V108.164H706.516V107.444ZM706.516 73.7557H717.648V73.0357H706.516V73.7557ZM717.648 73.7557C720.939 73.7557 724.059 73.2482 726.366 71.7422C728.701 70.2178 730.152 67.7041 730.152 63.8277H729.432C729.432 67.4954 728.077 69.7656 725.972 71.1393C723.84 72.5312 720.889 73.0357 717.648 73.0357V73.7557ZM730.152 63.8277C730.152 59.6563 728.881 57.0834 726.622 55.5814C724.398 54.1031 721.289 53.7157 717.74 53.7157V54.4357C721.274 54.4357 724.191 54.8303 726.223 56.181C728.219 57.508 729.432 59.8111 729.432 63.8277H730.152ZM717.74 53.7157H706.516V54.4357H717.74V53.7157ZM706.156 54.0757V73.3957H706.876V54.0757H706.156ZM782.759 99.1557H782.399V99.5157H782.759V99.1557ZM814.683 99.1557H815.043V98.7957H814.683V99.1557ZM814.683 107.804V108.164H815.043V107.804H814.683ZM773.283 107.804H772.923V108.164H773.283V107.804ZM773.283 45.4277V45.0677H772.923V45.4277H773.283ZM782.759 45.4277H783.119V45.0677H782.759V45.4277ZM782.759 99.5157H814.683V98.7957H782.759V99.5157ZM814.323 99.1557V107.804H815.043V99.1557H814.323ZM814.683 107.444H773.283V108.164H814.683V107.444ZM773.643 107.804V45.4277H772.923V107.804H773.643ZM773.283 45.7877H782.759V45.0677H773.283V45.7877ZM782.399 45.4277V99.1557H783.119V45.4277H782.399ZM866.637 44.9597C874.373 44.9597 879.793 49.6728 883.296 56.0094C886.803 62.3517 888.357 70.2702 888.357 76.5237H889.077C889.077 70.1732 887.503 62.1297 883.927 55.661C880.346 49.1866 874.725 44.2397 866.637 44.2397V44.9597ZM888.357 76.5237C888.357 83.3333 886.825 91.2959 883.332 97.5425C879.844 103.78 874.427 108.272 866.637 108.272V108.992C874.764 108.992 880.387 104.284 883.96 97.8939C887.528 91.5136 889.077 83.4222 889.077 76.5237H888.357ZM866.637 108.272C858.848 108.272 853.431 103.78 849.943 97.5425C846.45 91.2959 844.917 83.3333 844.917 76.5237H844.197C844.197 83.4222 845.747 91.5136 849.315 97.8939C852.888 104.284 858.511 108.992 866.637 108.992V108.272ZM844.917 76.5237C844.917 70.2702 846.471 62.3517 849.978 56.0094C853.482 49.6728 858.901 44.9597 866.637 44.9597V44.2397C858.549 44.2397 852.929 49.1866 849.348 55.661C845.771 62.1297 844.197 70.1732 844.197 76.5237H844.917ZM866.637 52.8877C860.891 52.8877 857.648 57.0023 855.857 61.9926C854.065 66.9848 853.673 72.9682 853.673 76.9837H854.393C854.393 72.9952 854.784 67.1106 856.534 62.2358C858.285 57.3591 861.344 53.6077 866.637 53.6077V52.8877ZM853.673 76.9837C853.673 80.9103 854.111 86.7108 855.927 91.5429C857.744 96.3751 860.989 100.344 866.637 100.344V99.6237C861.43 99.6237 858.373 96.0024 856.601 91.2895C854.83 86.5767 854.393 80.8772 854.393 76.9837H853.673ZM866.637 100.344C872.241 100.344 875.485 96.374 877.313 91.5436C879.141 86.7118 879.601 80.9116 879.601 76.9837H878.881C878.881 80.8758 878.422 86.5756 876.639 91.2888C874.856 96.0034 871.798 99.6237 866.637 99.6237V100.344ZM879.601 76.9837C879.601 72.9669 879.187 66.9838 877.384 61.9919C875.581 57.0034 872.339 52.8877 866.637 52.8877V53.6077C871.884 53.6077 874.944 57.358 876.706 62.2365C878.468 67.1117 878.881 72.9965 878.881 76.9837H879.601ZM932.852 81.9517V81.5917H932.492V81.9517H932.852ZM932.852 107.804V108.164H933.212V107.804H932.852ZM923.376 107.804H923.016V108.164H923.376V107.804ZM923.376 45.4277V45.0677H923.016V45.4277H923.376ZM949.228 80.0197L949.164 79.6655L948.657 79.7576L948.918 80.2017L949.228 80.0197ZM965.512 107.804V108.164H966.141L965.823 107.622L965.512 107.804ZM954.656 107.804L954.341 107.978L954.444 108.164H954.656V107.804ZM940.396 81.9517L940.712 81.7778L940.609 81.5917H940.396V81.9517ZM932.852 73.3037H932.492V73.6637H932.852V73.3037ZM932.852 54.0757V53.7157H932.492V54.0757H932.852ZM932.492 81.9517V107.804H933.212V81.9517H932.492ZM932.852 107.444H923.376V108.164H932.852V107.444ZM923.736 107.804V45.4277H923.016V107.804H923.736ZM923.376 45.7877H941.5V45.0677H923.376V45.7877ZM941.5 45.7877C947.147 45.7877 952.094 47.2452 955.622 50.1891C959.14 53.1251 961.288 57.5722 961.288 63.6437H962.008C962.008 57.3872 959.786 52.7263 956.083 49.6363C952.389 46.5542 947.262 45.0677 941.5 45.0677V45.7877ZM961.288 63.6437C961.288 71.3391 957.044 78.2327 949.164 79.6655L949.293 80.3739C957.604 78.8627 962.008 71.5883 962.008 63.6437H961.288ZM948.918 80.2017L965.202 107.986L965.823 107.622L949.539 79.8377L948.918 80.2017ZM965.512 107.444H954.656V108.164H965.512V107.444ZM954.972 107.63L940.712 81.7778L940.081 82.1256L954.341 107.978L954.972 107.63ZM940.396 81.5917H932.852V82.3117H940.396V81.5917ZM932.852 73.6637H939.844V72.9437H932.852V73.6637ZM939.844 73.6637C943.672 73.6637 946.853 73.2069 949.078 71.6555C951.335 70.0815 952.532 67.44 952.532 63.2757H951.812C951.812 67.2994 950.664 69.6719 948.666 71.0649C946.636 72.4805 943.653 72.9437 939.844 72.9437V73.6637ZM952.532 63.2757C952.532 61.1882 952.169 59.5297 951.496 58.2195C950.822 56.9052 949.846 55.9614 948.658 55.2916C946.301 53.964 943.108 53.7157 939.752 53.7157V54.4357C943.112 54.4357 946.129 54.6935 948.304 55.9188C949.381 56.5255 950.251 57.3699 950.856 58.5483C951.463 59.7307 951.812 61.2692 951.812 63.2757H952.532ZM939.752 53.7157H932.852V54.4357H939.752V53.7157ZM932.492 54.0757V73.3037H933.212V54.0757H932.492ZM1009.19 54.0757V53.7157H1008.83V54.0757H1009.19ZM1009.19 70.9117H1008.83V71.2717H1009.19V70.9117ZM1033.48 70.9117H1033.84V70.5517H1033.48V70.9117ZM1033.48 79.5597V79.9197H1033.84V79.5597H1033.48ZM1009.19 79.5597V79.1997H1008.83V79.5597H1009.19ZM1009.19 99.1557H1008.83V99.5157H1009.19V99.1557ZM1038.17 99.1557H1038.53V98.7957H1038.17V99.1557ZM1038.17 107.804V108.164H1038.53V107.804H1038.17ZM999.711 107.804H999.351V108.164H999.711V107.804ZM999.711 45.4277V45.0677H999.351V45.4277H999.711ZM1037.06 45.4277H1037.42V45.0677H1037.06V45.4277ZM1037.06 54.0757V54.4357H1037.42V54.0757H1037.06ZM1008.83 54.0757V70.9117H1009.55V54.0757H1008.83ZM1009.19 71.2717H1033.48V70.5517H1009.19V71.2717ZM1033.12 70.9117V79.5597H1033.84V70.9117H1033.12ZM1033.48 79.1997H1009.19V79.9197H1033.48V79.1997ZM1008.83 79.5597V99.1557H1009.55V79.5597H1008.83ZM1009.19 99.5157H1038.17V98.7957H1009.19V99.5157ZM1037.81 99.1557V107.804H1038.53V99.1557H1037.81ZM1038.17 107.444H999.711V108.164H1038.17V107.444ZM1000.07 107.804V45.4277H999.351V107.804H1000.07ZM999.711 45.7877H1037.06V45.0677H999.711V45.7877ZM1036.7 45.4277V54.0757H1037.42V45.4277H1036.7ZM1037.06 53.7157H1009.19V54.4357H1037.06V53.7157ZM1083.68 81.9517V81.5917H1083.32V81.9517H1083.68ZM1083.68 107.804V108.164H1084.04V107.804H1083.68ZM1074.21 107.804H1073.85V108.164H1074.21V107.804ZM1074.21 45.4277V45.0677H1073.85V45.4277H1074.21ZM1100.06 80.0197L1099.99 79.6655L1099.49 79.7576L1099.75 80.2017L1100.06 80.0197ZM1116.34 107.804V108.164H1116.97L1116.65 107.622L1116.34 107.804ZM1105.49 107.804L1105.17 107.978L1105.27 108.164H1105.49V107.804ZM1091.23 81.9517L1091.54 81.7778L1091.44 81.5917H1091.23V81.9517ZM1083.68 73.3037H1083.32V73.6637H1083.68V73.3037ZM1083.68 54.0757V53.7157H1083.32V54.0757H1083.68ZM1083.32 81.9517V107.804H1084.04V81.9517H1083.32ZM1083.68 107.444H1074.21V108.164H1083.68V107.444ZM1074.57 107.804V45.4277H1073.85V107.804H1074.57ZM1074.21 45.7877H1092.33V45.0677H1074.21V45.7877ZM1092.33 45.7877C1097.98 45.7877 1102.92 47.2452 1106.45 50.1891C1109.97 53.1251 1112.12 57.5722 1112.12 63.6437H1112.84C1112.84 57.3872 1110.62 52.7263 1106.91 49.6363C1103.22 46.5542 1098.09 45.0677 1092.33 45.0677V45.7877ZM1112.12 63.6437C1112.12 71.3391 1107.87 78.2327 1099.99 79.6655L1100.12 80.3739C1108.43 78.8627 1112.84 71.5883 1112.84 63.6437H1112.12ZM1099.75 80.2017L1116.03 107.986L1116.65 107.622L1100.37 79.8377L1099.75 80.2017ZM1116.34 107.444H1105.49V108.164H1116.34V107.444ZM1105.8 107.63L1091.54 81.7778L1090.91 82.1256L1105.17 107.978L1105.8 107.63ZM1091.23 81.5917H1083.68V82.3117H1091.23V81.5917ZM1083.68 73.6637H1090.67V72.9437H1083.68V73.6637ZM1090.67 73.6637C1094.5 73.6637 1097.68 73.2069 1099.91 71.6555C1102.16 70.0815 1103.36 67.44 1103.36 63.2757H1102.64C1102.64 67.2994 1101.49 69.6719 1099.5 71.0649C1097.47 72.4805 1094.48 72.9437 1090.67 72.9437V73.6637ZM1103.36 63.2757C1103.36 61.1882 1103 59.5297 1102.33 58.2195C1101.65 56.9052 1100.68 55.9614 1099.49 55.2916C1097.13 53.964 1093.94 53.7157 1090.58 53.7157V54.4357C1093.94 54.4357 1096.96 54.6935 1099.13 55.9188C1100.21 56.5255 1101.08 57.3699 1101.69 58.5483C1102.29 59.7307 1102.64 61.2692 1102.64 63.2757H1103.36ZM1090.58 53.7157H1083.68V54.4357H1090.58V53.7157ZM1083.32 54.0757V73.3037H1084.04V54.0757H1083.32Z" fill="white"/>
</svg>
