<svg width="1182" height="1182" viewBox="0 0 1182 1182" fill="none" xmlns="http://www.w3.org/2000/svg">
<rect width="1182" height="1182" fill="#0072FF"/>
<path d="M766.089 610.6C753.866 592.452 724.386 582.789 703.291 577.094C700.832 576.447 698.272 575.8 695.554 575.124H695.338C683.978 572.248 671.079 569.07 661.042 563.62C649.538 557.322 643.901 549.154 643.901 538.656C643.901 536.959 644.044 535.248 644.375 533.58V533.278C644.533 532.502 644.735 531.739 644.979 530.992C645.008 530.891 645.037 530.79 645.08 530.69V530.575C646.561 526.217 649.063 522.277 652.356 519.071C660.884 510.442 674.487 505.596 689.745 505.596H690.219C701.45 505.841 712.508 508.444 722.675 513.232C732.827 517.848 742.016 524.348 749.724 532.415L749.911 554.288V554.518H768.893V488.657H749.954V503.583C749.954 503.799 749.839 504.015 749.652 504.13C749.48 504.13 749.25 504.015 749.135 503.899C741.11 497.802 732.195 492.999 722.689 489.649C712.494 486.154 701.824 484.299 691.053 484.156C678.701 484.156 668.606 485.594 660.179 488.34C653.176 490.67 646.662 494.294 640.981 499.025C634.812 503.842 629.851 510.054 626.501 517.129C623.265 523.96 621.568 531.409 621.525 538.958C621.439 543.431 621.985 547.888 623.179 552.202C624.646 556.977 626.831 561.492 629.65 565.619C629.894 566.007 630.182 566.381 630.441 566.755C630.7 567.129 630.714 567.115 630.843 567.302L631.016 567.532C643.455 584.716 671.223 592.323 691.484 597.917L692.045 598.061L696.546 599.312L701.421 600.62C711.976 603.209 722.316 606.646 732.31 610.917C737.53 613.217 742.131 616.712 745.755 621.112C749.106 625.196 751.378 630.057 752.356 635.248C753.305 640.425 752.917 645.76 751.22 650.735C749.235 656.473 745.942 661.664 741.599 665.906C736.84 670.148 731.26 673.341 725.192 675.311C719.296 677.209 713.17 678.316 706.986 678.575C697.078 679.05 687.17 677.928 677.622 675.253C661.444 670.134 646.676 660.255 637.099 648.19C636.782 647.802 636.538 647.356 636.394 646.867L636.207 628.058V627.813H617.225V696.665H636.222V676.533C644.159 683.522 653.348 688.915 663.314 692.438C674.962 696.737 687.242 699.081 699.652 699.369H701.191C711.732 699.369 736.394 699.369 755.735 682.99C761.084 678.36 765.528 672.751 768.807 666.482C771.956 660.442 774.027 653.885 774.889 647.126C775.781 640.655 775.479 634.069 773.998 627.698C772.603 621.5 769.914 615.676 766.089 610.6Z" fill="white"/>
<path d="M578.654 610.6C566.675 592.539 537.081 582.832 515.855 577.109C513.44 576.476 510.937 575.858 508.277 575.196C485.269 569.516 456.624 562.427 456.293 538.599C456.293 535.004 457.055 531.466 458.522 528.188C460.104 524.751 462.304 521.63 465.022 518.984C473.65 510.471 487.181 505.582 502.324 505.582H502.798C514.029 505.826 525.073 508.429 535.226 513.218C545.335 517.819 554.466 524.334 562.116 532.401L562.49 554.273V554.518H581.472V488.657H562.533V503.583C562.533 503.799 562.418 504 562.246 504.13C562.102 504.13 561.929 504.13 561.714 503.899C553.69 497.802 544.774 492.999 535.269 489.649C525.073 486.154 514.403 484.299 503.632 484.156C491.208 484.156 481.084 485.594 472.686 488.34C465.697 490.684 459.212 494.308 453.561 499.025C447.392 503.842 442.43 510.054 439.08 517.129C435.83 523.974 434.119 531.437 434.076 539.016C433.989 543.474 434.536 547.932 435.7 552.246C437.138 556.991 439.252 561.492 441.999 565.619C453.92 584.198 483.083 592.179 504.38 598.018L504.883 598.147L509.111 599.312L513.569 600.505L513.986 600.62C524.541 603.209 534.88 606.646 544.875 610.917C550.109 613.246 554.739 616.769 558.392 621.184C561.757 625.311 564.029 630.215 565.021 635.449C565.956 640.626 565.553 645.975 563.842 650.951C561.843 656.689 558.521 661.865 554.164 666.093C549.433 670.321 543.868 673.499 537.828 675.426C531.918 677.324 525.778 678.388 519.58 678.618C518.3 678.618 516.963 678.705 515.611 678.705C506.94 678.719 498.312 677.554 489.971 675.21C489.008 674.908 488.03 674.578 487.095 674.232H486.951C485.01 673.542 483.069 672.794 481.199 671.917C471.809 667.804 463.238 662.067 455.847 654.963L455.473 654.604C454.323 653.453 453.158 652.231 452.036 650.951L451.174 649.959C450.67 649.369 450.181 648.794 449.735 648.19C449.419 647.802 449.189 647.356 449.045 646.881L448.858 628.072V627.828H429.603V696.68H448.786V676.548C456.724 683.536 465.913 688.929 475.879 692.452C487.527 696.752 499.807 699.096 512.217 699.383H513.756C524.239 699.383 548.786 699.383 568.3 683.004C573.649 678.374 578.093 672.766 581.371 666.496C584.521 660.499 586.591 653.985 587.483 647.255C588.375 640.784 588.073 634.198 586.591 627.828C585.211 621.587 582.493 615.705 578.654 610.6Z" fill="white"/>
<path d="M383.959 680.3L332.075 601.856C340.861 602.187 349.619 600.49 357.643 596.895C368.989 591.143 378.106 583.852 383.7 573.067C388.244 564.166 390.602 554.301 390.574 544.307C390.574 528.575 384.361 513.49 373.317 502.302C361.324 491.431 346.355 486.139 327.531 486.139H226.999V507.839H248.339V680.559H225.13V698.707H292.501V680.559H270.801V602.173H307.111L357.945 680.559H334.85V698.707H407.355V680.559H384.678C384.419 680.573 384.146 680.487 383.959 680.3ZM270.801 506.861H326.409C343.493 506.861 356.608 513.648 363.251 525.311C369.765 537.217 369.535 551.669 362.647 563.375C355.831 574.879 347.778 581.235 329.918 581.235H270.801V506.861Z" fill="white"/>
<path d="M948.112 635.851C948.112 609.809 934.954 591 913.125 582.932C931.632 573.211 939.8 557.221 939.8 540.755C939.8 502.749 907.919 482.616 866.346 482.616C843.654 482.789 819.467 490.339 802.944 513.534L820.2 524.793C829.447 512.355 842.619 502.749 866.346 502.749C896.545 502.749 917.971 515.015 917.971 538.368C917.971 561.722 896.487 573.211 874.485 573.211H844.517V594.782H876.225C904.281 594.782 926.455 609.895 925.765 635.607C924.198 662.929 900.125 677.611 868.604 677.611C848.328 677.611 825.809 671.227 808.998 653.251L808.135 652.921L793.41 669.041L794.1 669.213C815.239 689.044 840.361 699.297 868.604 699.297C912.089 699.21 948.112 675.684 948.112 635.851Z" fill="white"/>
<path d="M211.16 581.092H156.544V603.396H211.16V581.092Z" fill="white"/>
<path d="M1025.46 581.092H970.841V603.396H1025.46V581.092Z" fill="white"/>
</svg>
